<?xml version="1.0" encoding="UTF-8" standalone="no"?>
<svg
   xmlns:dc="http://purl.org/dc/elements/1.1/"
   xmlns:cc="http://creativecommons.org/ns#"
   xmlns:rdf="http://www.w3.org/1999/02/22-rdf-syntax-ns#"
   xmlns:svg="http://www.w3.org/2000/svg"
   xmlns="http://www.w3.org/2000/svg"
   version="1.0"
   width="800"
   height="180"
   id="svg2">
  <metadata
     id="metadata9">
    <rdf:RDF>
      <cc:Work
         rdf:about="">
        <dc:format>image/svg+xml</dc:format>
        <dc:type
           rdf:resource="http://purl.org/dc/dcmitype/StillImage" />
        <dc:title></dc:title>
      </cc:Work>
    </rdf:RDF>
  </metadata>
  <defs
     id="defs4" />
  <rect
     width="187.87968"
     height="166.31973"
     ry="0"
     x="6.1626673"
     y="5.5354309"
     id="rect3346"
     style="fill:#d90000;fill-opacity:1;fill-rule:nonzero;stroke:none;stroke-width:6.67572;stroke-linecap:butt;stroke-linejoin:round;stroke-miterlimit:4;stroke-dasharray:none;stroke-opacity:1" />
  <path
     d="M 50.129033,46.692827 V 126.76476 H 150.08901 V 100.1896 H 94.651932 V 92.324474 H 122.37047 V 75.24292 h 27.71854 V 46.692827 Z"
     id="rect3348"
     style="fill:#ffffff;fill-opacity:1;fill-rule:nonzero;stroke:none;stroke-width:6.67572;stroke-linecap:butt;stroke-linejoin:round;stroke-miterlimit:4;stroke-opacity:1" />
  <path
     d="m 233.73784,50.40133 v 80.07193 h 99.95996 v -26.57515 h -55.43705 v -7.865131 h 27.71852 V 78.951423 H 333.6978 V 50.40133 Z"
     id="rect3348-2"
     style="fill:#000000;fill-opacity:1;fill-rule:nonzero;stroke:none;stroke-width:6.67572;stroke-linecap:butt;stroke-linejoin:round;stroke-miterlimit:4;stroke-opacity:1" />
  <path
     style="fill:#000000;stroke:none;stroke-width:0.238419px;stroke-linecap:butt;stroke-linejoin:miter;stroke-opacity:1"
     d="m 759.02296,50.40133 v 80.07193 H 795.1608 V 50.40133 Z"
     id="path899" />
  <path
     style="fill:#000000;stroke:none;stroke-width:0.238419px;stroke-linecap:butt;stroke-linejoin:miter;stroke-opacity:1"
     d="m 708.23981,50.40133 v 80.07193 h 36.13784 V 50.40133 Z"
     id="path899-9" />
  <path
     id="path899-8"
     style="fill:#000000;stroke:none;stroke-width:0.238419px;stroke-linecap:butt;stroke-linejoin:miter;stroke-opacity:1"
     d="m 351.23618,50.401366 v 17.531216 h 36.13763 V 50.401366 Z m 0,28.550157 v 51.521697 h 36.13763 V 78.951523 Z" />
  <path
     id="path899-2"
     style="fill:#000000;stroke:none;stroke-width:0.238419px;stroke-linecap:butt;stroke-linejoin:miter;stroke-opacity:1"
     d="m 504.34655,50.401366 v 80.071854 h 36.13763 V 94.750483 h 15.02597 v 35.722737 h 36.13763 V 78.951523 h -4.56485 -31.57278 -15.02597 V 50.401366 Z" />
  <path
     id="path899-3"
     style="fill:#000000;stroke:none;stroke-width:0.238419px;stroke-linecap:butt;stroke-linejoin:miter;stroke-opacity:1"
     d="m 401.82888,78.951523 v 51.521697 h 36.13809 V 94.750483 h 15.21598 v 35.722737 h 36.13763 V 78.951523 h -14.07462 -37.27899 -17.4986 z" />
  <path
     id="path899-70"
     style="fill:#000000;stroke:none;stroke-width:0.238419px;stroke-linecap:butt;stroke-linejoin:miter;stroke-opacity:1"
     d="m 605.72239,78.951523 v 51.521697 h 20.16127 15.97686 51.73402 v -15.79896 h -51.73402 v -7.02496 h 51.73402 V 97.223141 78.951523 h -5.1353 -46.59872 z m 36.13813,10.426155 h 15.59639 v 7.845463 h -15.59639 z" />
</svg>
