<svg xmlns="http://www.w3.org/2000/svg" viewBox="0 3.52 470.11 96.95"><path d="M43.55 85.38c-2.7-.34-6.32.3-8.62 1.67-6.71 4-10.57 5.07-14.24 4.76-.15-.01-.23.09-.17.23 1.58 3.66 11.8 10.58 23.31 6.8 8.84-2.91 10.18-9.13 14.43-14.15.22-.26.13-.4-.2-.32-4.65 1.17-9.39 1.67-14.53 1.01Zm25.04-6.29c-2.15 1.67-4.25 4.68-4.91 7.27-1.92 7.57-3.89 11.06-6.7 13.44-.12.1-.1.22.05.28 3.7 1.47 15.83-.86 21.29-11.68 4.19-8.31.74-13.66.2-20.21-.03-.34-.19-.38-.37-.09-2.46 4.12-5.46 7.82-9.56 10.99m13.26-22.16c-.34 2.7.3 6.32 1.67 8.62 4 6.71 5.07 10.57 4.76 14.24-.01.15.09.23.23.17 3.66-1.58 10.58-11.8 6.8-23.31-2.91-8.84-9.13-10.18-14.15-14.43-.26-.22-.4-.13-.32.2 1.17 4.65 1.67 9.39 1.01 14.53Zm-6.29-25.05c1.67 2.15 4.68 4.25 7.27 4.91 7.57 1.92 11.06 3.89 13.44 6.7.1.12.22.1.28-.05 1.47-3.7-.86-15.83-11.68-21.29-8.31-4.19-13.66-.74-20.21-.2-.34.03-.38.19-.09.37 4.12 2.46 7.82 5.46 10.99 9.56M53.4 18.62c2.7.34 6.32-.3 8.62-1.67 6.71-4 10.57-5.07 14.24-4.76.15.01.23-.09.17-.23-1.58-3.66-11.8-10.58-23.31-6.8-8.84 2.91-10.18 9.13-14.43 14.15-.22.26-.13.4.2.32 4.65-1.17 9.39-1.67 14.53-1.01Zm-25.05 6.29c2.15-1.67 4.25-4.68 4.91-7.27 1.92-7.57 3.89-11.06 6.7-13.44.12-.1.1-.22-.05-.28-3.7-1.47-15.83.86-21.29 11.68-4.19 8.31-.74 13.66-.2 20.21.03.34.19.38.37.09 2.46-4.12 5.46-7.82 9.56-10.99M15.09 47.07c.34-2.7-.3-6.32-1.67-8.62-4-6.71-5.07-10.57-4.76-14.24.01-.15-.09-.23-.23-.17-3.66 1.58-10.58 11.8-6.8 23.31 2.91 8.84 9.13 10.18 14.15 14.43.26.22.4.13.32-.2-1.17-4.65-1.67-9.39-1.01-14.53Zm6.3 25.05c-1.67-2.15-4.68-4.25-7.27-4.91-7.57-1.92-11.06-3.89-13.44-6.7-.1-.12-.22-.1-.28.05-1.47 3.7.86 15.83 11.68 21.29 8.31 4.19 13.66.74 20.21.2.34-.03.38-.19.09-.37-4.12-2.46-7.82-5.46-10.99-9.56M75.73 52c0 15.06-12.2 27.26-27.26 27.26S21.21 67.06 21.21 52s12.2-27.26 27.26-27.26S75.73 36.94 75.73 52" style="fill:#ff5003"/><path d="M139.48 59.29v-9.98h21.02v23.64c-6.38 5.31-14.07 7.72-22.9 7.69-10.92.07-20.11-4.42-25.07-13.7-7.46-14.56-2.69-34.87 13.41-41.38 11.3-4.63 26.59-1.97 33.74 8.22l-8.34 7.93c-3.59-4.26-7.55-7.12-13.49-7.03-9.88-.21-16 8.19-15.87 17.5-.23 9.6 6.72 17.41 16.36 17.26 4.06-.02 7.72-.8 10.8-3.27V59.3h-9.65Zm22.4 20.04 20.37-54.55h13.66l19.96 54.55h-13.49l-4.17-12.51h-19.22l-4.17 12.51H161.9Zm19.95-22.08h13.41l-6.62-20.61zm85.75 22.08V24.78h19.89c5.62 0 10.62.97 15.01 2.9 9.87 4.5 14.16 13.21 14.11 24.66.08 11.02-4.64 19.59-14.19 24-4.39 1.99-9.39 2.99-15.01 2.99zm12.35-10.96h6.81c10.41.11 17.04-5.85 17.01-16.11-.08-10.55-5.81-16.76-17.01-16.6h-6.81zm41.61 10.96V24.78h37.29v10.8h-24.94v10.63h19.38v10.47h-19.38v11.78h26.74v10.88h-39.09Zm44.26 0V24.78h11.78l23.64 35.41V24.78h12.19v54.55h-11.2L378 43.26v36.07h-12.19Zm50.32 0 20.37-54.55h13.66l19.96 54.55h-13.49l-4.17-12.51h-19.22l-4.17 12.51h-12.92Zm19.96-22.08h13.41l-6.62-20.61zm-196 2.12h-9.02v19.96h-12.48V24.78h22.04c11.45-.02 20.59 4.78 20.64 16.47-.03 7.47-2.81 12.29-9.52 15.49l11.39 22.59h-13.42zm-9.02-9.45h9.55c4.89.04 7.53-2.7 7.53-7.47 0-4.75-2.67-7.59-7.53-7.55h-9.55z" data-name="GARDENA"/></svg>