<?xml version="1.0" encoding="UTF-8" standalone="no"?>
<svg
   version="1.1"
   id="svg2"
   xml:space="preserve"
   width="1716.4093"
   height="531.27667"
   viewBox="0 0 1716.4093 531.27666"
   xmlns="http://www.w3.org/2000/svg"
   xmlns:svg="http://www.w3.org/2000/svg"
   xmlns:rdf="http://www.w3.org/1999/02/22-rdf-syntax-ns#"
   xmlns:cc="http://creativecommons.org/ns#"
   xmlns:dc="http://purl.org/dc/elements/1.1/"><metadata
     id="metadata8"><rdf:RDF><cc:Work
         rdf:about=""><dc:format>image/svg+xml</dc:format><dc:type
           rdf:resource="http://purl.org/dc/dcmitype/StillImage" /></cc:Work></rdf:RDF></metadata><defs
     id="defs6" /><g
     id="g10"
     transform="matrix(1.3333333,0,0,-1.3333333,613.00332,341.53499)"><g
       id="g12"
       transform="matrix(0.35,0,0,0.35,-459.7525,-142.30625)"><path
         d="M 3678.02,0 H 0 V 1138.45 H 3678.02 V 0"
         style="fill:#224b44;fill-opacity:1;fill-rule:nonzero;stroke:none"
         id="path14" /><path
         d="m 3170.47,391.797 c 50.68,0 91.76,44.422 91.76,99.207 0,54.785 -41.08,99.203 -91.76,99.203 -50.7,0 -91.78,-44.418 -91.78,-99.203 0,-54.785 41.08,-99.207 91.78,-99.207 z m -245.7,94.461 c 0,131.293 109.3,237.722 245.18,237.722 135.88,0 245.19,-106.429 245.19,-237.722 0,-131.289 -109.31,-237.715 -245.19,-237.715 -135.88,0 -245.18,106.426 -245.18,237.715"
         style="fill:#ffffff;fill-opacity:1;fill-rule:nonzero;stroke:none"
         id="path16" /><path
         d="M 455.746,705.406 H 263.059 V 576.656 H 304.77 V 394.422 H 263.059 V 262.945 l 196.488,0.024 v 276.676 c -0.195,24.5 7.773,49.16 43.953,49.16 36.676,0 44.59,-24.66 44.461,-49.457 V 262.945 l 151.281,0.024 -0.008,276.379 c 0.063,24.797 7.977,49.457 43.664,49.457 36.18,0 44.098,-24.66 44.286,-49.457 l -0.016,-276.379 196.973,-0.024 v 131.477 h -41.715 v 182.234 c 0,99.739 -52.106,147.348 -125.309,147.348 -51.16,0 -94.258,-19.813 -128.039,-57.566 -20.765,34.367 -44.703,57.558 -111.055,57.566 -54.71,-0.59 -90.894,-19.402 -122.277,-55.953 v 37.355"
         style="fill:#ffffff;fill-opacity:1;fill-rule:nonzero;stroke:none"
         id="path18" /><path
         d="M 1727.58,847.469 H 1577.6 V 705.066 h -41.21 V 576.672 h 41.21 v -182.25 h -42.33 V 262.945 h 235.46 v 131.477 h -41.84 v 182.25 h 39.63 v 128.394 h -40.94 v 142.403"
         style="fill:#ffffff;fill-opacity:1;fill-rule:nonzero;stroke:none"
         id="path20" /><path
         d="m 2042.62,392.969 c 50.39,0 91.23,44.16 91.23,98.621 0,54.465 -40.84,98.617 -91.23,98.617 -50.39,0 -91.23,-44.152 -91.23,-98.617 0,-54.461 40.84,-98.621 91.23,-98.621 z m 87.36,281.636 v 30.918 h 192 V 576.672 h -36.51 v -182.25 h 35.96 V 262.969 l -195.04,-0.082 0.14,30.937 c -34.17,-29.273 -75.69,-45.281 -121.63,-45.281 -113.13,0 -204.82,105.027 -204.82,234.59 0,129.551 91.69,234.574 204.82,234.574 46.91,0 90.54,-12.703 125.08,-43.102"
         style="fill:#ffffff;fill-opacity:1;fill-rule:nonzero;stroke:none"
         id="path22" /><path
         d="m 2654.79,393.262 c 50.31,0 91.1,44.082 91.1,98.472 0,54.383 -40.79,98.473 -91.1,98.473 -50.31,0 -91.09,-44.09 -91.09,-98.473 0,-54.39 40.78,-98.472 91.09,-98.472 z m 37.4,323.777 c 112.96,0 204.54,-104.875 204.54,-234.25 0,-129.363 -91.58,-234.246 -204.54,-234.246 -45.88,0 -87.73,15.957 -121.85,45.176 v -30.75 h -194.78 v 131.453 h 36.46 v 353.641 h -36.46 V 875.57 h 191.73 V 674.004 c 34.48,30.355 78.06,43.035 124.9,43.035"
         style="fill:#ffffff;fill-opacity:1;fill-rule:nonzero;stroke:none"
         id="path24" /><path
         d="m 1333.42,534.867 c 0,41.625 -35.33,75.981 -78.32,75.981 -37.53,0 -76.82,-34.555 -76.82,-75.981 z m -2.45,-144.48 h 158.42 c -17.37,-69.063 -106.95,-147.078 -232.95,-147.578 -126.8,-0.504 -243.61,87.519 -243.6,239.242 0,127.152 89.54,237.152 243.6,239.25 148.76,2.023 243.04,-112.832 243.61,-239.25 0.05,-13.266 -1.29,-23.789 -3.48,-36.465 h -317.82 c 1.12,-56.242 31.41,-78.488 75.72,-81.566 22.33,-1.551 57.05,4.242 76.5,26.367"
         style="fill:#ffffff;fill-opacity:1;fill-rule:nonzero;stroke:none"
         id="path26" /></g></g></svg>
