<?xml version="1.0" encoding="UTF-8" standalone="no"?>
<!-- Created with Inkscape (http://www.inkscape.org/) -->
<svg
   xmlns:svg="http://www.w3.org/2000/svg"
   xmlns="http://www.w3.org/2000/svg"
   version="1.0"
   width="956.69287"
   height="418.11023"
   id="svg2">
  <defs
     id="defs4" />
  <g
     transform="translate(-552.70574,1353.7804)"
     id="layer1">
    <g
       transform="translate(35.433006,35.411665)"
       id="g5410">
      <path
         d="M 1438.5326,-1045.0282 C 1438.5326,-1023.7593 1421.2863,-1006.4935 1399.9971,-1006.4935 L 591.24118,-1006.4935 C 569.95196,-1006.4935 552.70574,-1023.7593 552.70574,-1045.0282 L 552.70574,-1315.2254 C 552.70574,-1336.5147 569.95196,-1353.7804 591.24118,-1353.7804 L 1399.9971,-1353.7804 C 1421.2863,-1353.7804 1438.5326,-1336.5147 1438.5326,-1315.2254 L 1438.5326,-1045.0282 z"
         id="path4753"
         style="fill:#c92a28;fill-opacity:1;fill-rule:nonzero;stroke:none" />
      <path
         d="M 606.33894,-1278.2924 L 716.14443,-1278.2924 C 755.94941,-1275.3236 774.09407,-1244.5218 773.8011,-1218.2716 C 773.50813,-1189.4636 748.85951,-1163.0181 723.31245,-1163.6243 L 780.32459,-1080.4394 L 726.84763,-1080.4394 L 671.02692,-1160.6743 L 671.02692,-1080.4394 L 627.62816,-1080.4394 L 627.62816,-1200.4402 L 713.7616,-1200.4402 C 735.18754,-1200.4402 737.51178,-1231.9436 714.38661,-1237.2764 L 606.33894,-1237.2764 L 606.33894,-1278.2924 z"
         id="path4757"
         style="fill:#ffffff;fill-opacity:1;fill-rule:nonzero;stroke:none" />
      <path
         d="M 834.97342,-1080.4394 L 879.01671,-1080.4394 L 879.01671,-1163.0571 L 951.38052,-1278.2924 L 900.26687,-1278.2924 L 857.02437,-1210.5387 L 815.36391,-1278.2924 L 764.89479,-1278.2924 L 834.97342,-1162.4712 L 834.97342,-1080.4394 z"
         id="path4761"
         style="fill:#ffffff;fill-opacity:1;fill-rule:nonzero;stroke:none" />
      <path
         d="M 1139.8194,-1278.2924 L 1230.6209,-1278.2924 C 1308.5121,-1273.5267 1301.3831,-1195.6933 1279.3712,-1184.4042 C 1310.8558,-1167.7634 1312.6723,-1089.9707 1244.8788,-1080.4394 L 1153.4914,-1080.4394 L 1153.4914,-1199.8152 L 1238.9803,-1199.8152 C 1259.7813,-1204.0137 1250.2109,-1234.3077 1238.3749,-1234.9139 L 1139.8194,-1234.9139 L 1139.8194,-1278.2924 z M 1197.9449,-1122.6459 L 1236.6366,-1122.6459 C 1259.1563,-1120.849 1266.2852,-1160.029 1235.4061,-1161.279 L 1197.9449,-1161.279 L 1197.9449,-1122.6459 z"
         id="path4765"
         style="fill:#ffffff;fill-opacity:1;fill-rule:nonzero;stroke:none" />
      <path
         d="M 1317.9848,-1278.2924 L 1363.1609,-1278.2924 L 1363.1609,-1080.4581 L 1317.9848,-1080.4581 L 1317.9848,-1278.2924 z"
         id="path4767"
         style="fill:#ffffff;fill-opacity:1;fill-rule:nonzero;stroke:none" />
      <path
         d="M 1133.8428,-1177.2947 C 1133.2569,-1131.0053 1096.3425,-1074.6581 1031.1272,-1074.5784 C 966.30251,-1074.4612 927.14206,-1130.3803 926.90769,-1178.7979 C 926.59519,-1228.3889 970.4041,-1281.7283 1029.8381,-1281.7283 C 1094.6042,-1281.7283 1134.4678,-1226.0451 1133.8428,-1177.2947 M 1029.8381,-1235.9467 C 996.45898,-1235.9467 971.82989,-1205.9668 971.98614,-1178.0948 C 972.12286,-1150.868 994.07615,-1119.4428 1030.5803,-1119.4818 C 1067.2407,-1119.5006 1088.0026,-1151.2008 1088.3737,-1177.2354 C 1088.6667,-1204.6387 1066.2446,-1235.9467 1029.8381,-1235.9467"
         id="path4771"
         style="fill:#ffffff;fill-opacity:1;fill-rule:nonzero;stroke:none" />
      <path
         d="M 1412.6144,-1096.9426 C 1412.6144,-1089.5785 1407.2628,-1078.9925 1394.8018,-1078.9925 C 1384.0986,-1078.9925 1376.5204,-1086.6691 1376.5204,-1096.2785 C 1376.5204,-1107.6255 1384.2939,-1114.7552 1394.1377,-1114.7552 C 1407.2628,-1114.7552 1412.6144,-1104.052 1412.6144,-1096.9426 M 1394.2354,-1111.1818 C 1386.3837,-1111.1818 1380.1532,-1105.4786 1380.1532,-1096.3957 C 1380.1532,-1088.7003 1386.208,-1082.5862 1394.7236,-1082.5862 C 1404.7237,-1082.5862 1409.0206,-1091.0441 1409.0206,-1096.9426 C 1409.0206,-1102.6255 1404.7237,-1111.1818 1394.2354,-1111.1818"
         id="path4775"
         style="fill:#ffffff;fill-opacity:1;fill-rule:nonzero;stroke:none" />
      <path
         d="M 1386.7744,-1107.1583 L 1397.2237,-1107.1583 C 1403.8253,-1107.1583 1404.6065,-1097.8223 1399.919,-1097.1582 C 1402.3604,-1095.9285 1402.3604,-1094.0332 1402.3604,-1094.0332 L 1402.3604,-1086.6706 L 1398.0049,-1086.6706 L 1398.0049,-1091.9051 C 1398.0049,-1091.9051 1397.712,-1094.3848 1395.2119,-1094.4832 L 1391.0908,-1094.4832 L 1391.0908,-1086.6706 L 1386.7744,-1086.6706 L 1386.7744,-1107.1583 z M 1391.0908,-1098.7207 L 1397.5166,-1098.7207 C 1399.1182,-1100.0489 1398.9034,-1102.2754 1397.5948,-1103.1739 L 1391.0908,-1103.1739 L 1391.0908,-1098.7207 z"
         id="path4779"
         style="fill:#ffffff;fill-opacity:1;fill-rule:nonzero;stroke:none" />
    </g>
  </g>
</svg>
