<svg version="1.1" xmlns="http://www.w3.org/2000/svg" x="0" y="0" viewBox="0 0 500 500" xml:space="preserve" enable-background="new 0 0 500 500" width="2500" height="2500"><g opacity=".61"><path d="M251.666 467.061a.902.902 0 1 1-.614-.854.494.494 0 0 0 .595.676 1 1 0 0 1 .019.178m-3.411 0a.681.681 0 1 1-.464-.646.374.374 0 0 0 .45.512 1 1 0 0 1 .014.134m-5.347.769h.616v.616h-.616zm11.919 0h.616v.616h-.616z" fill="#FFFFFF"/><path d="M255.205 468.082h-.14a5.896 5.896 0 0 0-5.89-5.89 5.896 5.896 0 0 0-5.89 5.89h-.14a6 6 0 0 1 1.766-4.264 6 6 0 0 1 4.264-1.766 6 6 0 0 1 4.264 1.766 6 6 0 0 1 1.766 4.264" fill="#FFFFFF"/><path fill="#FFFFFF" d="M248.868 461.814h.616v.616h-.616z"/><path fill="#FFFFFF" d="M244.95 462.052h8.45v.14h-8.45z"/><path d="M245.174 462.15a.196.196 0 1 1-.393 0 .196.196 0 0 1 .393 0m8.422 0a.196.196 0 1 1-.393 0 .196.196 0 0 1 .393 0m60.76 11.259c0 1.559-2.364 1.559-2.364 0 .001-1.558 2.364-1.558 2.364 0m-152.617-6.86 1.772 6.088 1.855-6.088h2.215l-2.823 8.14h-2.33l-.837-2.396-.722-2.708-.722 2.708-.837 2.396h-2.33l-2.839-8.14h2.231l1.855 6.088 1.756-6.088zm14.974 0 1.772 6.088 1.855-6.088h2.215l-2.823 8.14h-2.33l-.837-2.396-.722-2.708-.722 2.708-.837 2.396h-2.33l-2.839-8.14h2.231l1.855 6.088 1.756-6.088zm14.974 0 1.772 6.088 1.855-6.088h2.215l-2.823 8.14h-2.33l-.837-2.396-.722-2.708-.722 2.708-.837 2.396h-2.33l-2.839-8.14h2.231l1.855 6.088 1.756-6.088zm9.221 6.971c0 1.559-2.364 1.559-2.364 0 .001-1.558 2.364-1.558 2.364 0m121.802-.111c-.935.919-1.919 1.28-3.117 1.28-2.346 0-4.3-1.411-4.3-4.282s1.953-4.284 4.3-4.284c1.149 0 2.035.329 2.921 1.199l-1.264 1.329a2.45 2.45 0 0 0-1.623-.64c-1.346 0-2.33.985-2.33 2.396 0 1.542 1.05 2.362 2.297 2.362.64 0 1.28-.18 1.772-.672zm9.095-2.937c0 2.33-1.591 4.217-4.217 4.217s-4.201-1.887-4.201-4.217c0-2.314 1.609-4.217 4.185-4.217 2.577 0 4.233 1.903 4.233 4.217m-6.416 0c0 1.231.739 2.38 2.199 2.38s2.199-1.149 2.199-2.38c0-1.215-.854-2.396-2.199-2.396-1.444.001-2.199 1.182-2.199 2.396m13.183 4.217v-4.332c0-1.068-.559-2.035-1.658-2.035-1.082 0-1.722.967-1.722 2.035v4.332h-2.003v-8.107h1.855l.148.985c.426-.82 1.362-1.116 2.133-1.116.969 0 1.937.394 2.396 1.51.723-1.149 1.658-1.478 2.708-1.478 2.297 0 3.43 1.412 3.43 3.84v4.365h-2.003v-4.365c0-1.066-.442-1.97-1.526-1.97-1.082 0-1.756.935-1.756 2.003v4.332h-2.002z" fill="#FFFFFF"/></g><g opacity=".61"><path d="M345.988 431.299c-.006-1.224-.959-2.121-2.189-2.14-.924-.014-.832.12-.834-.867-.003-1.097-.007-2.194.003-3.292a1.4 1.4 0 0 0-.362-.976c-2.342-2.668-4.678-5.342-7.019-8.011-.12-.137-.275-.244-.414-.366h-18.641c-.794.293-1.14.868-1.138 1.709.01 3.748.004 7.496.004 11.243 0 .556-.003.589-.55.551-1.497-.102-2.516.986-2.497 2.492.044 3.476.013 6.953.014 10.429.001 1.58.867 2.443 2.45 2.449.582.002.582.002.582.6q-.001 3.328.001 6.657c.001 1.192.58 1.771 1.768 1.771h24.04q1.753-.001 1.757-1.745l.001-6.768c0-.512.002-.511.52-.515.271-.002.541.008.809-.058.996-.246 1.69-1.044 1.694-2.069q.025-5.546.001-11.094m-28.451-14.137h16.01c.548 0 .554.007.554.561l.001 6.73c.001.811.249 1.059 1.06 1.059l5.731.001c.458 0 .479.021.481.483q.004 1.331 0 2.662c-.001.477-.024.498-.504.499h-23.331c-.55 0-.552-.001-.552-.561v-10.871c0-.559.004-.563.55-.563m23.285 34.417h-23.263c-.572 0-.574-.002-.574-.579q-.002-2.995.001-5.991c0-.464.023-.486.478-.487h23.41c.478 0 .499.02.499.503q.002 2.996 0 5.991c.002.558-.003.563-.551.563" fill="#FFFFFF"/><path fill="#FFFFFF" d="M327.418 417.053h1.757v1.054h-1.757zm-1.756 1.054h1.757v1.054h-1.757zm1.756 1.054h1.757v1.054h-1.757zm-1.756 1.054h1.757v1.054h-1.757zm1.756 1.054h1.757v1.054h-1.757zm-1.756 1.054h1.757v1.054h-1.757zm1.756 1.055h1.757v1.054h-1.757zm-1.756 1.054h1.757v1.054h-1.757zm1.756 1.054h1.757v1.054h-1.757zm-1.756 1.054h1.757v1.054h-1.757zm1.756 1.054h1.757v1.054h-1.757zm-1.756 1.054h1.757v1.054h-1.757zm-138.025 2.651c-.006-1.224-.959-2.121-2.189-2.14-.924-.014-.832.12-.834-.867-.003-1.097-.007-2.194.003-3.292a1.4 1.4 0 0 0-.362-.976c-2.342-2.668-4.678-5.342-7.019-8.011-.12-.137-.275-.244-.414-.366h-18.641c-.794.293-1.14.868-1.138 1.709.01 3.748.004 7.496.004 11.243 0 .556-.003.589-.55.551-1.497-.102-2.516.986-2.497 2.492.044 3.476.013 6.953.014 10.429.001 1.58.867 2.443 2.45 2.449.582.002.582.002.582.6q-.001 3.328.001 6.657c.001 1.192.58 1.771 1.768 1.771h24.04q1.753-.001 1.757-1.745l.001-6.768c0-.512.002-.511.52-.515.271-.002.541.008.809-.058.996-.246 1.69-1.044 1.694-2.069.016-3.697.019-7.396.001-11.094m-28.45-14.137h16.01c.548 0 .554.007.554.561l.001 6.73c.001.811.249 1.059 1.06 1.059l5.731.001c.458 0 .479.021.481.483q.004 1.331 0 2.662c-.001.477-.024.498-.504.499h-23.331c-.55 0-.552-.001-.552-.561v-10.871c-.001-.559.003-.563.55-.563m23.285 34.417h-23.263c-.572 0-.574-.002-.574-.579q-.002-2.995.001-5.991c0-.464.023-.486.478-.487h23.41c.478 0 .499.02.499.503q.002 2.996 0 5.991c.001.558-.004.563-.551.563"/><path d="M159.779 440.669v-7.897h2.779q.563 0 1.053.182.49.181.855.513.364.33.573.789.21.458.21 1.009 0 .563-.21 1.02t-.573.789a2.6 2.6 0 0 1-.855.513 3 3 0 0 1-1.053.182h-1.29v2.901zm2.801-4.313q.585 0 .882-.331a1.1 1.1 0 0 0 .298-.761q0-.21-.072-.408a.9.9 0 0 0-.221-.347 1.1 1.1 0 0 0-.37-.237 1.4 1.4 0 0 0-.518-.089h-1.312v2.173zm3.728-3.585h1.731l3.177 5.294h.088l-.088-1.522v-3.772h1.478v7.897h-1.566l-3.353-5.592h-.088l.088 1.522v4.07h-1.467zm11.614 3.563h3.872q.033.133.055.32.022.188.022.375 0 .76-.231 1.434a3.3 3.3 0 0 1-.728 1.202 3.65 3.65 0 0 1-1.268.871q-.739.309-1.688.309a4.3 4.3 0 0 1-1.622-.309 4.03 4.03 0 0 1-2.217-2.167 4.1 4.1 0 0 1-.331-1.649q0-.893.331-1.649a4.1 4.1 0 0 1 .894-1.307 4 4 0 0 1 1.323-.86 4.3 4.3 0 0 1 1.622-.309q.96 0 1.715.331a3.9 3.9 0 0 1 1.296.915l-1.025 1.004a2.7 2.7 0 0 0-.861-.623q-.474-.215-1.136-.215a2.8 2.8 0 0 0-1.026.193 2.6 2.6 0 0 0-.85.546 2.6 2.6 0 0 0-.579.855 2.8 2.8 0 0 0-.215 1.119q0 .618.215 1.12a2.55 2.55 0 0 0 1.439 1.401 2.8 2.8 0 0 0 1.037.193q.628 0 1.064-.182.435-.182.744-.469.222-.198.381-.502.16-.303.248-.678h-2.482v-1.269zm46.097-5.035c-.006-1.224-.959-2.121-2.189-2.14-.924-.014-.832.12-.834-.867-.003-1.097-.007-2.194.003-3.292a1.4 1.4 0 0 0-.362-.976c-2.342-2.668-4.678-5.342-7.019-8.011-.12-.137-.275-.244-.414-.366h-18.641c-.794.293-1.14.868-1.138 1.709.01 3.748.004 7.496.004 11.243 0 .556-.003.589-.55.551-1.497-.102-2.516.986-2.497 2.492.044 3.476.013 6.953.014 10.429.001 1.58.867 2.443 2.45 2.449.582.002.582.002.582.6q-.001 3.328.001 6.657c.001 1.192.58 1.771 1.768 1.771h24.04q1.753-.001 1.757-1.745l.001-6.768c0-.512.002-.511.52-.515.271-.002.541.008.809-.058.997-.246 1.69-1.044 1.694-2.069q.025-5.546.001-11.094m-28.451-14.137h16.01c.548 0 .554.007.554.561l.001 6.73c.001.811.249 1.059 1.06 1.059l5.731.001c.458 0 .479.021.481.483q.004 1.331 0 2.662c-.001.477-.024.498-.504.499H195.57c-.55 0-.552-.001-.552-.561v-10.871c0-.559.004-.563.55-.563m23.286 34.417h-23.263c-.572 0-.574-.002-.574-.579q-.002-2.995.001-5.991c0-.464.023-.486.478-.487h23.41c.478 0 .499.02.499.503q.002 2.996 0 5.991c.001.558-.004.563-.551.563" fill="#FFFFFF"/><path d="M205.111 432.771h1.699l2.967 7.897h-1.644l-.651-1.886h-3.044l-.651 1.886h-1.643zm1.886 4.644-.706-1.974-.287-.96h-.088l-.287.96-.706 1.974zm4.334-2.879a.92.92 0 0 1-.657-.271.9.9 0 0 1-.27-.656.9.9 0 0 1 .27-.656.9.9 0 0 1 .298-.198.9.9 0 0 1 .359-.072q.386 0 .662.27.276.271.276.656c0 .385-.092.476-.276.656a.9.9 0 0 1-.662.271m-.716 6.133v-5.404h1.445v5.404zm50.429-9.37c-.006-1.224-.959-2.121-2.189-2.14-.924-.014-.832.12-.834-.867-.003-1.097-.007-2.194.003-3.292a1.4 1.4 0 0 0-.362-.976c-2.342-2.668-4.678-5.342-7.019-8.011-.12-.137-.275-.244-.414-.366h-18.641c-.794.293-1.14.868-1.138 1.709.01 3.748.004 7.496.004 11.243 0 .556-.003.589-.55.551-1.497-.102-2.516.986-2.497 2.492.044 3.476.013 6.953.014 10.429.001 1.58.867 2.443 2.45 2.449.582.002.582.002.582.6q-.001 3.328.001 6.657c.001 1.192.58 1.771 1.768 1.771h24.04q1.753-.001 1.757-1.745l.001-6.768c0-.512.002-.511.52-.515.271-.002.541.008.809-.058.996-.246 1.69-1.044 1.694-2.069q.025-5.546.001-11.094m-28.451-14.137h16.01c.548 0 .554.007.554.561l.001 6.73c.001.811.249 1.059 1.06 1.059l5.731.001c.458 0 .479.021.481.483q.004 1.331 0 2.662c-.001.477-.024.498-.504.499h-23.331c-.55 0-.552-.001-.552-.561v-10.871c-.001-.559.004-.563.55-.563m23.285 34.417h-23.263c-.572 0-.574-.002-.574-.579q-.002-2.995.001-5.991c0-.464.023-.486.478-.487h23.41c.478 0 .499.02.499.503q.002 2.996 0 5.991c.002.558-.003.563-.551.563" fill="#FFFFFF"/><path d="M236.361 440.845q-.507 0-.971-.143a2.8 2.8 0 0 1-.849-.43 3 3 0 0 1-.673-.7 3.4 3.4 0 0 1-.452-.965l1.401-.551q.154.596.54.987.386.392 1.015.392.231 0 .447-.061.215-.06.386-.176c.171-.116.204-.175.27-.292a.8.8 0 0 0 .099-.408 1 1 0 0 0-.077-.397.94.94 0 0 0-.259-.331 2.3 2.3 0 0 0-.475-.298 7 7 0 0 0-.722-.298l-.485-.176a3.7 3.7 0 0 1-.645-.298 3 3 0 0 1-.59-.452 2.2 2.2 0 0 1-.436-.623 1.86 1.86 0 0 1-.171-.81 2.07 2.07 0 0 1 .7-1.572q.336-.303.805-.474c.469-.171.66-.171 1.042-.171q.595 0 1.031.16t.739.408.491.546.276.563l-1.312.551a1.4 1.4 0 0 0-.402-.596q-.293-.264-.8-.265-.486 0-.805.226a.7.7 0 0 0-.32.59q0 .353.309.601t.982.48l.497.165q.474.166.866.381.391.214.673.513a2.1 2.1 0 0 1 .43.678q.15.38.149.877 0 .618-.248 1.064a2.3 2.3 0 0 1-.634.734 2.8 2.8 0 0 1-.872.43 3.5 3.5 0 0 1-.95.141m3.155-8.074h1.61l1.633 4.754.287 1.015h.088l.309-1.015 1.699-4.754h1.61l-2.879 7.897h-1.566zm11.581 3.563h3.871q.033.133.055.32.023.188.023.375 0 .76-.232 1.434a3.3 3.3 0 0 1-.728 1.202 3.6 3.6 0 0 1-1.268.871q-.739.309-1.688.309a4.3 4.3 0 0 1-1.621-.309 4 4 0 0 1-1.324-.86 4.08 4.08 0 0 1-1.225-2.956q0-.893.331-1.649a4.1 4.1 0 0 1 .894-1.307 4 4 0 0 1 1.324-.86 4.3 4.3 0 0 1 1.621-.309q.96 0 1.715.331a3.85 3.85 0 0 1 1.296.915l-1.026 1.004a2.7 2.7 0 0 0-.861-.623q-.474-.215-1.136-.215-.54 0-1.026.193a2.6 2.6 0 0 0-.849.546q-.364.352-.579.855a2.8 2.8 0 0 0-.215 1.119q0 .618.215 1.12t.585.855.854.546q.486.193 1.037.193.629 0 1.064-.182t.745-.469q.22-.198.38-.502a2.8 2.8 0 0 0 .248-.678h-2.482v-1.269zm46.203-5.035c-.006-1.224-.959-2.121-2.189-2.14-.924-.014-.832.12-.834-.867-.003-1.097-.007-2.194.003-3.292a1.4 1.4 0 0 0-.362-.976c-2.342-2.668-4.678-5.342-7.019-8.011-.12-.137-.275-.244-.414-.366h-18.641c-.794.293-1.14.868-1.138 1.709.01 3.748.004 7.496.004 11.243 0 .556-.003.589-.55.551-1.497-.102-2.516.986-2.497 2.492.044 3.476.013 6.953.014 10.429.001 1.58.867 2.443 2.45 2.449.582.002.582.002.582.6q-.001 3.328.001 6.657c.001 1.192.58 1.771 1.768 1.771h24.04q1.753-.001 1.757-1.745l.001-6.768c0-.512.002-.511.52-.515.271-.002.541.008.809-.058.996-.246 1.69-1.044 1.694-2.069q.026-5.546.001-11.094m-28.45-14.137h16.01c.548 0 .554.007.554.561l.001 6.73c.001.811.249 1.059 1.06 1.059l5.731.001c.458 0 .479.021.481.483q.004 1.331 0 2.662c-.001.477-.024.498-.504.499h-23.331c-.55 0-.552-.001-.552-.561v-10.871c-.001-.559.003-.563.55-.563m23.285 34.417h-23.263c-.572 0-.574-.002-.574-.579q-.002-2.995.001-5.991c0-.464.023-.486.478-.487h23.41c.478 0 .499.02.499.503v5.991c.001.558-.004.563-.551.563" fill="#FFFFFF"/><path d="M272.966 434.183v1.831h3.165v1.412h-3.165v1.831h3.518v1.412h-5.007v-7.897h5.007v1.412zm4.886 6.486v-7.897h2.779q.563 0 1.053.182.49.181.855.513.364.33.574.789.21.458.209 1.009 0 .563-.209 1.02-.21.457-.574.789a2.6 2.6 0 0 1-.855.513 3 3 0 0 1-1.053.182h-1.29v2.901zm2.801-4.313q.584 0 .882-.331a1.1 1.1 0 0 0 .298-.761q0-.21-.072-.408a.9.9 0 0 0-.221-.347 1.1 1.1 0 0 0-.37-.237 1.4 1.4 0 0 0-.518-.089h-1.312v2.173zm6.144 4.489q-.507 0-.971-.143a2.8 2.8 0 0 1-.849-.43 3 3 0 0 1-.673-.7 3.4 3.4 0 0 1-.452-.965l1.401-.551q.154.596.541.987.385.392 1.015.392.231 0 .447-.061a1.3 1.3 0 0 0 .386-.176.82.82 0 0 0 .37-.7 1 1 0 0 0-.077-.397.94.94 0 0 0-.259-.331 2.3 2.3 0 0 0-.474-.298 7 7 0 0 0-.723-.298l-.485-.176a3.7 3.7 0 0 1-.645-.298 2.8 2.8 0 0 1-.59-.452 2.2 2.2 0 0 1-.436-.623 1.86 1.86 0 0 1-.171-.81 2.1 2.1 0 0 1 .7-1.572q.337-.303.805-.474a3 3 0 0 1 1.042-.171q.596 0 1.031.16t.739.408a2.3 2.3 0 0 1 .491.546q.188.298.276.563l-1.312.551a1.4 1.4 0 0 0-.403-.596q-.293-.264-.799-.265-.486 0-.805.226a.7.7 0 0 0-.32.59q0 .353.309.601t.982.48l.496.165q.474.166.866.381.391.214.673.513a2.1 2.1 0 0 1 .43.678q.149.38.149.877 0 .618-.248 1.064a2.3 2.3 0 0 1-.634.734 2.8 2.8 0 0 1-.872.43 3.5 3.5 0 0 1-.951.141m34.597-1.677 4.004-4.985h-3.827v-1.412h5.559v1.5l-3.96 4.985h4.004v1.412h-5.779v-1.5zm7.015-6.397h1.489v7.897h-1.489zm3.077 7.898v-7.897h2.779q.563 0 1.053.182.49.181.855.513c.365.332.434.483.574.789q.21.458.209 1.009 0 .563-.209 1.02-.21.457-.574.789a2.6 2.6 0 0 1-.855.513 3 3 0 0 1-1.053.182h-1.29v2.901zm2.802-4.313q.584 0 .882-.331a1.1 1.1 0 0 0 .298-.761q0-.21-.072-.408a.9.9 0 0 0-.221-.347 1.1 1.1 0 0 0-.37-.237 1.4 1.4 0 0 0-.518-.089h-1.312v2.173z" fill="#FFFFFF"/></g><path d="M300.133 433.27h9.067v2.242h-9.067zm0 3.866h9.067v2.243h-9.067zm-143.377 41.742h1.607c1.263 0 2.114.812 2.114 1.974s-.851 1.973-2.114 1.973h-1.607zm1.584 3.586c1.049 0 1.725-.665 1.725-1.612s-.677-1.613-1.725-1.613h-1.167v3.225zm6.799-1.613c0-1.15.879-2.007 2.075-2.007 1.184 0 2.069.851 2.069 2.007s-.885 2.007-2.069 2.007c-1.195 0-2.075-.856-2.075-2.007m3.727 0c0-.942-.705-1.635-1.652-1.635-.953 0-1.663.693-1.663 1.635 0 .941.71 1.635 1.663 1.635.948 0 1.652-.693 1.652-1.635m10.73-1.973-1.331 3.947h-.44l-1.156-3.366-1.161 3.366h-.434l-1.331-3.947h.429l1.139 3.394 1.178-3.394h.389l1.161 3.411 1.156-3.411zm8.135 0v3.947h-.344l-2.537-3.202v3.202h-.417v-3.947h.344l2.543 3.203v-3.203zm5.362 0h.417v3.586h2.21v.361h-2.627zm6.968 1.973c0-1.15.879-2.007 2.075-2.007 1.184 0 2.069.851 2.069 2.007s-.885 2.007-2.069 2.007c-1.195 0-2.075-.856-2.075-2.007m3.727 0c0-.942-.705-1.635-1.652-1.635-.953 0-1.663.693-1.663 1.635 0 .941.71 1.635 1.663 1.635.947 0 1.652-.693 1.652-1.635m7.848.919h-2.199l-.474 1.054h-.434l1.804-3.947h.412l1.804 3.947h-.44zm-.152-.338-.947-2.12-.947 2.12zm5.796-2.554h1.607c1.263 0 2.114.812 2.114 1.974s-.851 1.973-2.114 1.973h-1.607zm1.584 3.586c1.049 0 1.725-.665 1.725-1.612s-.677-1.613-1.725-1.613h-1.167v3.225zm15.177-.694h-2.199l-.474 1.054h-.434l1.804-3.947h.412l1.804 3.947h-.44zm-.152-.338-.947-2.12-.947 2.12zm5.796-2.554h.417v3.586h2.21v.361h-2.627zm7.397 0h.417v3.586h2.21v.361h-2.627zm13.367.361v1.551h2.041v.361h-2.041v1.675h-.417v-3.947h2.706v.361zm7.229-.361h.417v3.947h-.417zm5.778 0h.417v3.586h2.21v.361h-2.627zm10.188 3.586v.361h-2.791v-3.947h2.706v.361h-2.289v1.404h2.041v.355h-2.041v1.466zm11.028-3.225v1.551h2.041v.361h-2.041v1.675h-.417v-3.947h2.706v.361zm6.828 1.612c0-1.15.879-2.007 2.075-2.007 1.184 0 2.069.851 2.069 2.007s-.885 2.007-2.069 2.007c-1.196 0-2.075-.856-2.075-2.007m3.726 0c0-.942-.705-1.635-1.652-1.635-.953 0-1.663.693-1.663 1.635 0 .941.71 1.635 1.663 1.635.948 0 1.652-.693 1.652-1.635m8.125 1.974-.902-1.269a3 3 0 0 1-.316.017h-1.06v1.252h-.417v-3.947h1.477c1.004 0 1.613.507 1.613 1.353 0 .62-.327 1.054-.902 1.24l.964 1.353zm-.023-2.594c0-.632-.417-.992-1.207-.992h-1.048v1.979h1.048c.79 0 1.207-.367 1.207-.987m9.579-1.353v3.947h-.4v-3.158l-1.551 2.656h-.197l-1.551-2.639v3.14h-.4v-3.947h.344l1.714 2.926 1.697-2.926h.344zm7.837 2.892h-2.199l-.473 1.054h-.434l1.804-3.947h.411l1.804 3.947h-.44zm-.152-.338-.947-2.12-.947 2.12zm6.365-2.193h-1.387v-.361h3.192v.361h-1.387v3.586h-.417zm6.106 3.107.164-.321c.282.276.784.479 1.302.479.739 0 1.06-.31 1.06-.699 0-1.083-2.43-.417-2.43-1.877 0-.581.451-1.083 1.455-1.083.446 0 .908.13 1.224.35l-.141.333a2.03 2.03 0 0 0-1.083-.327c-.722 0-1.043.321-1.043.716 0 1.083 2.43.429 2.43 1.866 0 .581-.462 1.077-1.472 1.077-.592-.002-1.173-.21-1.466-.514" fill="#FFFFFF" opacity=".61"/><path fill="#1E5453" d="M25 162.234h450v175.532H25z"/><path fill="#FFFFFF" d="M148.56 194.097H76.608l-3.946 12.963h26.677l-18.974 61.431h26.677l18.974-61.431h26.864zm157.241 0h-71.952l-3.945 12.963h26.677l-18.975 61.431h26.677l18.974-61.431h26.865zm86.936 62.12 18.562-62.12h-26.676l-22.231 74.394h60.95l3.507-12.274z"/><path fill="#FFFFFF" d="M337.761 268.491h26.677l-22.231-74.394h-26.676l15.774 52.79h-18.392l6.456-9.833-8.128-24.452-36.696 55.889h24.183l6.126-9.33h30.119zm-150.463-12.719h-21.643a3.332 3.332 0 0 1-3.189-4.298l11.788-38.901-5.572-18.454c-9.279.234-17.419 6.327-20.21 15.223l-13.049 41.6c-2.729 8.7 3.769 17.549 12.887 17.549h42.828zm31.438-61.675h-41.777l3.745 12.176h22.117a3.316 3.316 0 0 1 3.18 4.253l-11.74 39.827 5.545 18.029c9.466-.883 17.549-7.459 20.235-16.731l11.668-40.289c2.502-8.64-3.98-17.265-12.973-17.265m-80.696 99.988q-.001-4.796 1.084-7.396 1.083-2.6 6.629-2.599 3.35 0 5.936.884 2.584.887 2.788 5.009.056.635.072 1.269t.014 1.297v1.269q0 5.36-1.17 7.595-1.169 2.233-7.382 2.233-4.361 0-6.181-1.472-1.82-1.474-1.82-6.096v-.52q-.001-.259.029-.518zm3.755-.087v1.733a24 24 0 0 0 .057 1.704q.173 2.165 1.17 2.628.997.462 2.932.463 2.541 0 3.639-.65t1.186-3.337q.057-1.185.058-2.354v-2.326q0-2.687-.652-3.668-.65-.982-3.393-.983-3.727 0-4.349 1.055-.62 1.054-.621 4.059v.26a8 8 0 0 0-.029.681v.765-.03zm18.141-4.015.029 2.079q.78-1.242 1.762-1.748.982-.503 2.486-.504 2.454 0 3.625.966 1.17.969 1.17 3.51v9.187H165.8v-8.319q0-1.502-.432-2.153-.435-.65-2.11-.65-1.503 0-2.34.75-.839.752-.839 2.311v8.06h-3.206v-13.49h3.063zm24.15 9.186q.03.145.029.273v.276q0 2.744-1.834 3.335-1.834.592-4.088.592-4.275 0-5.373-1.602-1.098-1.604-1.098-5.562 0-3.554 1.156-5.099 1.155-1.544 4.941-1.544 3.783 0 5.04 1.357 1.257 1.358 1.256 5.142l-.029.952h-9.156q0 2.167.446 3.107.449.938 2.874.938 1.012 0 1.834-.317.824-.318.825-1.561v-.288zm-3.654-6.384q-.534-.607-2.498-.607-1.677 0-2.282.485-.608.488-.664 2.204v.201a.23.23 0 0 0-.029.113v.115h6.008q0-1.905-.535-2.511m11.627 1.935v3.294h-6.818v-3.294zm12.45-4.881q0-1.675-.693-2.254-.695-.577-2.397-.578h-1.012q-.26.028-.563.029a5 5 0 0 0-.592.029 6.4 6.4 0 0 0-.925.127 2.9 2.9 0 0 0-.808.3q-.346.228-.52.6a3.5 3.5 0 0 0-.259.8q-.001.17-.014.327-.015.158-.014.3 0 1.445.563 1.978.562.535 2.064.623.146 0 .276.014.129.013.273.014.376.028.736.043.361.014.709.014c1.885.058 3.553.323 4.996.796q2.167.71 2.167 4.563-.001 2.462-.779 4.04-.78 1.577-3.613 1.867-.462.028-.909.043t-.882.043q-.462.029-.909.029h-.911q-3.322 0-5.416-.738-2.095-.74-2.095-4.739v-.189q0-.101.029-.189v-.376l3.495-.029q0 1.363.362 2.319t1.978.985q.694.03 1.388.029h1.386q1.705 0 2.484-.506.78-.509.781-2.276 0-1.912-.997-2.262-.997-.349-2.556-.376h-.578a7 7 0 0 1-.607-.029 3 3 0 0 1-.606-.057q-3.062-.203-4.783-1.026-1.718-.824-1.719-4.637 0-2.427 1.04-3.726 1.04-1.3 3.553-1.503a36 36 0 0 1 1.517-.086q.766-.028 1.515-.029 2.976 0 5.171.635 2.196.637 2.196 4.332v.724h-3.522zm15.023 2.57h-5.142v6.847q0 .925.173 1.443.173.52 1.242.52 1.098 0 1.345-.65.244-.65.245-1.575v-.664h2.687q.029.204.029.376v.345q0 2.4-.925 3.495-.925 1.098-3.495 1.098-2.34 0-3.423-.75-1.084-.751-1.084-3.177v-7.31h-1.733v-2.426h1.733v-3.033h3.208v3.033h5.142v2.428zm3.263-1.213q1.243-1.357 4.912-1.357 3.84 0 5.198 1.242 1.36 1.243 1.359 5.2 0 3.582-.825 5.473-.824 1.893-5.126 1.892-3.583 0-5.171-1.141-1.59-1.14-1.589-5.011v-1.33q0-3.61 1.242-4.968m2.052 5.315v.925q0 1.704.345 2.757.347 1.055 2.397 1.055l.376-.029q.201.03.448.029.243.001.506-.029.432-.058.851-.202c.419-.144.506-.261.679-.491q.289-.403.405-.983.115-.577.144-1.213.029-.287.029-.592v-2.224q0-.302-.029-.65a9 9 0 0 0-.187-1.156q-.13-.548-.448-.866a1.5 1.5 0 0 0-.621-.376 2.5 2.5 0 0 0-.765-.115 2 2 0 0 0-.319-.029h-1.4q-.16 0-.304.029-.376 0-.736.101c-.36.101-.438.179-.592.333a1.5 1.5 0 0 0-.391.549 6 6 0 0 0-.216.635 1 1 0 0 0-.057.346l-.058.563a5 5 0 0 0-.029.535q-.03.289-.029.563v.563zm15.049-6.528v1.877q.81-1.212 1.748-1.618.94-.403 2.354-.403 3.612 0 4.478 1.795.867 1.794.866 5.007 0 2.895-.779 4.951-.78 2.054-4.361 2.054-1.417 0-2.426-.331-1.012-.334-1.762-1.637l-.06 7.486h-3.177v-19.182h3.119zm.086 6.384v.866q.001 1.764.52 2.846.52 1.084 2.543 1.084 2.165 0 2.585-1.026.42-1.024.419-2.875v-1.443q0-.348-.029-.722a11 11 0 0 0-.173-1.127q-.118-.548-.376-.896a1.4 1.4 0 0 0-.664-.491 4.3 4.3 0 0 0-.839-.202 3 3 0 0 0-.417-.029h-.592q-1.069 0-1.865.259-.794.262-.995 1.851-.03.231-.058.475a4 4 0 0 0-.029.477 4 4 0 0 0-.031.506v.477zm27.877 7.106h-3.726V287.47h-5.576v-3.265h14.965v3.265h-5.663zm8.262-12.277q1.242-1.357 4.912-1.357 3.84 0 5.198 1.242 1.36 1.243 1.359 5.2 0 3.582-.825 5.473-.824 1.893-5.126 1.892-3.583 0-5.171-1.141-1.59-1.14-1.589-5.011v-1.33q0-3.61 1.242-4.968m2.052 5.315v.925q0 1.704.345 2.757.347 1.055 2.397 1.055l.376-.029q.202.03.448.029.243.001.506-.029.432-.058.851-.202c.419-.144.506-.261.679-.491q.289-.403.405-.983.115-.577.144-1.213.029-.287.029-.592v-2.224q0-.302-.029-.65-.058-.606-.187-1.156c-.129-.55-.236-.654-.448-.866a1.5 1.5 0 0 0-.621-.376 2.5 2.5 0 0 0-.765-.115 2 2 0 0 0-.319-.029h-1.4q-.16 0-.304.029-.376 0-.736.101c-.36.101-.438.179-.592.333a1.5 1.5 0 0 0-.391.549 6 6 0 0 0-.216.635 1 1 0 0 0-.057.346l-.058.563a5 5 0 0 0-.029.535q-.03.289-.029.563v.563zm12.884-5.315q1.24-1.357 4.91-1.357 3.843 0 5.2 1.242 1.357 1.243 1.357 5.2 0 3.582-.822 5.473-.823 1.893-5.128 1.892-3.582 0-5.171-1.141c-1.589-1.141-1.589-2.43-1.589-5.011v-1.33q-.001-3.61 1.243-4.968m2.05 5.315v.925q0 1.704.347 2.757.346 1.055 2.397 1.055l.374-.029q.205.03.448.029.246.001.506-.029.435-.058.853-.202.417-.146.679-.491.288-.403.403-.983.116-.577.146-1.213a6 6 0 0 0 .029-.592v-2.224q0-.302-.029-.65-.06-.606-.189-1.156c-.129-.55-.234-.654-.446-.866a1.5 1.5 0 0 0-.621-.376 2.6 2.6 0 0 0-.767-.115 2 2 0 0 0-.317-.029h-1.402q-.16 0-.302.029-.377 0-.738.101c-.361.101-.438.179-.592.333q-.259.231-.389.549c-.13.318-.158.424-.218.635a1.4 1.4 0 0 0-.043.173 1 1 0 0 0-.014.173l-.058.563a6 6 0 0 0-.029.535 6 6 0 0 0-.029.563v.563zm15.224 6.962h-3.263v-19.268h3.263zm14.415-9.822h-3.092q0-.924-.563-1.285-.562-.362-1.429-.362h-.692q-.204.03-.376.029h-.345q-.811.001-1.474.218-.665.217-.664 1.285 0 1.07.419 1.371.418.305 1.4.362.317.028.65.029h.679q.145.029.29.029h.288q2.023.058 3.728.65 1.704.592 1.705 3.251 0 2.975-1.719 3.711t-4.291.736h-.707a9 9 0 0 1-.736-.029q-1.85-.057-3.38-.707-1.532-.651-1.532-2.961v-.75h3.265q0 1.357.535 1.791.534.433 1.805.434l.983-.031q1.212.03 1.906-.245.694-.273.693-1.633 0-1.04-.491-1.314-.49-.274-1.415-.304h-.664q-.173 0-.347-.014a5 5 0 0 0-.345-.014q-2.312-.028-4.073-.592-1.763-.561-1.762-3.596-.001-2.772 1.805-3.349 1.805-.58 4.001-.578h.894q.462-.001.925.029a7.8 7.8 0 0 1 2.86.75q1.299.636 1.299 2.541v.29q-.001.059-.014.13a1 1 0 0 0-.014.158v-.03zm21.956-3.812q0-1.675-.695-2.254-.692-.577-2.397-.578h-1.01a6 6 0 0 1-.563.029q-.306-.001-.592.029a6.4 6.4 0 0 0-.925.127 2.8 2.8 0 0 0-.808.3 1.4 1.4 0 0 0-.52.6 3.5 3.5 0 0 0-.261.8q0 .17-.014.327c-.014.157-.014.206-.014.3q.001 1.445.563 1.978.564.535 2.066.623.143 0 .273.014.13.013.276.014.375.028.736.043.362.014.707.014 2.831.087 4.998.796 2.165.71 2.165 4.563 0 2.462-.779 4.04-.78 1.577-3.611 1.867a37 37 0 0 1-.911.043q-.447.015-.88.043-.463.029-.911.029h-.909q-3.322 0-5.418-.738c-2.096-.738-2.093-2.073-2.093-4.739v-.189q-.001-.101.029-.189v-.376l3.495-.029q0 1.363.36 2.319.362.956 1.98.985.693.03 1.386.029h1.388q1.703 0 2.484-.506.78-.509.779-2.276 0-1.912-.995-2.262-.998-.349-2.558-.376h-.578a7 7 0 0 1-.607-.029 3 3 0 0 1-.606-.057q-3.062-.203-4.781-1.026-1.718-.824-1.719-4.637 0-2.427 1.04-3.726 1.04-1.3 3.553-1.503.75-.059 1.515-.086.765-.028 1.517-.029 2.976 0 5.171.635 2.196.637 2.196 4.332v.724h-3.522zm15.02 2.57h-5.142v6.847q.001.925.175 1.443.172.52 1.242.52 1.097 0 1.343-.65c.246-.65.247-.958.247-1.575v-.664h2.685q.028.204.029.376v.345q0 2.4-.923 3.495-.926 1.098-3.495 1.098-2.341 0-3.423-.75-1.083-.751-1.084-3.177v-7.31h-1.733v-2.426h1.733v-3.033h3.206v3.033h5.142v2.428zm2.397 1.532q0-2.861 1.633-3.438 1.632-.578 4.001-.578 2.772 0 4.536.75 1.762.752 1.762 4.044v8.753h-3.179l.086-1.676q-.75 1.358-1.863 1.618t-2.556.259q-2.14 0-3.524-.779-1.388-.78-1.388-3.236 0-2.599 1.345-3.465 1.341-.867 3.683-.868.318 0 .664.014t.693.014q.462.058.896.13.432.074.808.247.319.145.535.389.217.246.391.506a.2.2 0 0 1 .043.072.2.2 0 0 0 .043.074l.058-2.081q0-1.647-.621-2.167-.622-.519-2.268-.52h-.448a5 5 0 0 0-.506.029 3.2 3.2 0 0 0-.808.214 1.18 1.18 0 0 0-.578.498 1.2 1.2 0 0 0-.115.385l-.058.413v.399zm2.745 5.315q0 1.53.679 1.863.68.333 2.007.333h.578a5.5 5.5 0 0 0 1.851-.419q.836-.361.837-1.604v-.245q0-.13-.029-.247a2.5 2.5 0 0 0-.115-.52.95.95 0 0 0-.29-.432 1.95 1.95 0 0 0-.707-.347 7 7 0 0 0-.851-.173 6 6 0 0 0-.621-.029h-.997q-.23-.001-.463.029a4 4 0 0 0-.75.13 1.8 1.8 0 0 0-.664.331 1.2 1.2 0 0 0-.333.477q-.102.274-.13.592v.29-.029zm20.913-6.847h-5.142v6.847q.001.925.175 1.443.172.52 1.242.52 1.097 0 1.343-.65c.246-.65.247-.958.247-1.575v-.664h2.685q.028.204.029.376v.345q0 2.4-.923 3.495-.926 1.098-3.495 1.098-2.341 0-3.423-.75-1.084-.751-1.084-3.177v-7.31h-1.733v-2.426h1.733v-3.033h3.206v3.033h5.142v2.428zm5.344-5.402h-3.206v-2.803h3.206zm0 16.466h-3.206v-13.49h3.206zm3.987-12.277q1.243-1.357 4.912-1.357 3.84 0 5.198 1.242 1.36 1.243 1.359 5.2 0 3.582-.825 5.473-.824 1.893-5.126 1.892-3.583 0-5.171-1.141-1.59-1.14-1.589-5.011v-1.33q0-3.61 1.242-4.968m2.052 5.315v.925q0 1.704.345 2.757.347 1.055 2.397 1.055l.376-.029q.202.03.448.029.243.001.506-.029.432-.058.851-.202c.419-.144.506-.261.679-.491q.289-.403.405-.983.115-.577.144-1.213.029-.287.029-.592v-2.224q0-.302-.029-.65-.058-.606-.187-1.156c-.129-.55-.236-.654-.448-.866a1.5 1.5 0 0 0-.621-.376 2.5 2.5 0 0 0-.765-.115 2 2 0 0 0-.319-.029h-1.4q-.16 0-.304.029-.376 0-.736.101c-.36.101-.438.179-.592.333a1.5 1.5 0 0 0-.391.549 6 6 0 0 0-.216.635 1 1 0 0 0-.057.346l-.058.563a5 5 0 0 0-.029.535q-.03.289-.029.563v.563zm14.992-6.528.029 2.079q.78-1.242 1.762-1.748.982-.503 2.486-.504 2.454 0 3.625.966 1.17.969 1.17 3.51v9.187h-3.208v-8.319q0-1.502-.432-2.153-.435-.65-2.11-.65-1.503 0-2.34.75-.839.752-.839 2.311v8.06h-3.206v-13.49h3.063z"/></svg>